PathFileType	4	(X/Y/Z)	/Users/itak/Documents/Research/Walk-IL/dataset/trc/00099_00007.trc
DataRate	CameraRate	NumFrames	NumMarkers	Units	OrigDataRate	OrigDataStartFrame	OrigNumFrames
100.000000	100.000000	4	53	mm	100.000000	130	523
Frame#	Time	RPSI			LPSI			L3			STRN			T10			C7			CLAV			RBAK			LBAK			LSHO			LUPA			LAEL			LAOL			LWTS			LWPS			LFRA			LIFD			LHPS			LHTS			RSHO			RUPA			RAEL			RAOL			RWTS			RWPS			RFRA			RIFD			RHTS			RHPS			RBHD			LFHD			RFHD			LBHD			LHIP			RHIP			RASI			LASI			LKNE			LTHI			LANK			LTIP			LTOE			LMT1			LMT5			LHEE			RKNE			RTHI			RANK			RTIP			RTOE			RMT1			RMT5			RHEE			
		X1	Y1	Z1	X2	Y2	Z2	X3	Y3	Z3	X4	Y4	Z4	X5	Y5	Z5	X6	Y6	Z6	X7	Y7	Z7	X8	Y8	Z8	X9	Y9	Z9	X10	Y10	Z10	X11	Y11	Z11	X12	Y12	Z12	X13	Y13	Z13	X14	Y14	Z14	X15	Y15	Z15	X16	Y16	Z16	X17	Y17	Z17	X18	Y18	Z18	X19	Y19	Z19	X20	Y20	Z20	X21	Y21	Z21	X22	Y22	Z22	X23	Y23	Z23	X24	Y24	Z24	X25	Y25	Z25	X26	Y26	Z26	X27	Y27	Z27	X28	Y28	Z28	X29	Y29	Z29	X30	Y30	Z30	X31	Y31	Z31	X32	Y32	Z32	X33	Y33	Z33	X34	Y34	Z34	X35	Y35	Z35	X36	Y36	Z36	X37	Y37	Z37	X38	Y38	Z38	X39	Y39	Z39	X40	Y40	Z40	X41	Y41	Z41	X42	Y42	Z42	X43	Y43	Z43	X44	Y44	Z44	X45	Y45	Z45	X46	Y46	Z46	X47	Y47	Z47	X48	Y48	Z48	X49	Y49	Z49	X50	Y50	Z50	X51	Y51	Z51	X52	Y52	Z52	X53	Y53	Z53	

131	1.3	-1795.494506835938	1121.181274414062	-237.0872344970703	-1795.132568359375	1123.028564453125	-372.2457275390625	-1802.053344726562	1157.165161132812	-307.018798828125	-1580.06884765625	1352.032104492188	-301.5913696289062	-1835.068237304688	1311.08349609375	-307.7215576171875	-1785.1025390625	1601.355712890625	-321.013427734375	-1609.49267578125	1488.700805664062	-306.0090942382812	-1852.22119140625	1419.622314453125	-235.4775390625	-1790.659790039062	1582.740600585938	-422.8692016601562	-1702.509643554688	1565.983764648438	-488.6849365234375	-1725.844604492188	1434.636352539062	-558.7919311523438	-1719.307373046875	1215.306030273438	-581.1697998046875	-1786.224365234375	1204.021118164062	-525.0631713867188	-1622.640014648438	957.1937866210938	-539.9884033203125	-1705.30322265625	932.3388671875	-565.658447265625	-1705.633056640625	1099.414672851562	-585.5137329101562	-1614.469360351562	764.7423095703125	-515.6551513671875	-1676.523803710938	857.14013671875	-566.79736328125	-1608.972778320312	867.2838745117188	-550.9766845703125	-1739.120483398438	1581.431396484375	-137.6994781494141	-1760.694702148438	1508.5361328125	-74.99610900878906	-1775.279296875	1212.848876953125	-53.43680572509766	-1783.401977539062	1212.314086914062	-150.4386749267578	-1630.236572265625	970.0048828125	-73.13527679443359	-1705.138061523438	952.5773315429688	-40.15806198120117	-1751.971923828125	1139.037353515625	-39.29085922241211	-1608.306518554688	775.1248168945312	-93.56082153320312	-1602.115112304688	860.5725708007812	-69.53601837158203	-1670.477416992188	853.0983276367188	-36.74595260620117	-1750.680908203125	1764.677490234375	-238.9738159179688	-1591.824462890625	1839.497192382812	-373.3465270996094	-1591.111938476562	1844.804321289062	-243.6233215332031	-1758.237915039062	1762.756713867188	-374.1864318847656	-1701.498779296875	1035.083618164062	-481.7895202636719	-1672.358032226562	1022.171630859375	-117.0876388549805	-1588.586181640625	1095.125854492188	-168.7821960449219	-1596.978149414062	1097.234130859375	-435.1052551269531	-1624.579833984375	528.30078125	-454.3832397460938	-1660.073486328125	676.036376953125	-478.4648132324219	-1828.2353515625	46.90494155883789	-457.9215698242188	-1771.619384765625	296.7095947265625	-482.0561218261719	-1599.651000976562	40.20530700683594	-411.7567443847656	-1676.744873046875	43.51721572875977	-374.4565734863281	-1704.084716796875	33.50618743896484	-489.1838684082031	-1894.086181640625	53.51871871948242	-391.2632446289062	-1685.757934570312	529.365234375	-173.0673980712891	-1655.232543945312	807.213623046875	-131.4509582519531	-1824.848266601562	26.62228775024414	-211.8068237304688	-1718.74755859375	394.5264587402344	-165.8534698486328	-1592.058471679688	41.9852409362793	-257.64794921875	-1651.843872070312	32.79990768432617	-299.9732360839844	-1691.767700195312	37.81979370117188	-185.5511322021484	-1881.333374023438	29.68816184997559	-262.3756103515625	
132	1.31	-1794.483642578125	1121.061401367188	-236.2436218261719	-1794.594360351562	1122.762817382812	-371.4306945800781	-1801.169311523438	1157.264282226562	-306.1016540527344	-1578.286010742188	1351.479370117188	-300.7934265136719	-1833.47998046875	1311.345458984375	-306.5758056640625	-1782.408325195312	1601.450317382812	-319.8281860351562	-1607.149780273438	1488.294921875	-305.0785522460938	-1850.1025390625	1419.959350585938	-234.2329864501953	-1788.154296875	1582.919677734375	-421.7113952636719	-1700.109008789062	1565.870849609375	-487.6130065917969	-1723.861450195312	1434.6220703125	-557.6792602539062	-1717.9228515625	1215.2802734375	-580.174072265625	-1784.906372070312	1204.153930664062	-524.09130859375	-1621.839721679688	956.9945068359375	-539.0244750976562	-1704.479125976562	932.2734985351562	-564.6912841796875	-1704.510375976562	1099.362670898438	-584.5345458984375	-1613.884887695312	764.5504150390625	-514.6287841796875	-1675.85888671875	857.0440063476562	-565.8206176757812	-1608.2431640625	867.065185546875	-549.9954833984375	-1736.269409179688	1581.295776367188	-136.5851440429688	-1758.016479492188	1508.494262695312	-73.86925506591797	-1773.438842773438	1212.848022460938	-52.11782455444336	-1781.745727539062	1212.309814453125	-149.1004791259766	-1628.881591796875	969.7433471679688	-71.98889923095703	-1703.775512695312	952.43212890625	-38.92897796630859	-1750.274658203125	1138.975463867188	-38.0023193359375	-1607.323120117188	774.801513671875	-92.42268371582031	-1600.946899414062	860.241943359375	-68.4278564453125	-1669.308471679688	852.9013061523438	-35.54226684570312	-1747.6298828125	1764.409912109375	-237.8669128417969	-1588.867797851562	1839.07958984375	-372.447509765625	-1588.034545898438	1844.4072265625	-242.7190093994141	-1755.314819335938	1762.423706054688	-373.074462890625	-1700.872680664062	1034.749633789062	-481.0187072753906	-1671.440185546875	1021.985229492188	-116.3450927734375	-1587.4443359375	1094.6181640625	-167.9864044189453	-1596.4287109375	1096.874877929688	-434.2676391601562	-1615.881591796875	528.3179321289062	-453.4144897460938	-1653.594604492188	675.979248046875	-477.4000854492188	-1827.613891601562	49.74503707885742	-458.0278625488281	-1766.572265625	298.5238342285156	-481.41552734375	-1599.522827148438	40.17396926879883	-412.4866943359375	-1676.147216796875	44.05294799804688	-374.83203125	-1703.997924804688	33.77410888671875	-489.091064453125	-1893.210205078125	57.51220703125	-391.1923522949219	-1685.563842773438	529.1656494140625	-172.2391967773438	-1654.449584960938	806.9893188476562	-130.6077270507812	-1824.948974609375	26.5092658996582	-211.7275238037109	-1718.6943359375	394.3155212402344	-165.1367797851562	-1592.09228515625	42.04193496704102	-257.6344604492188	-1651.953857421875	33.00910568237305	-300.0246887207031	-1691.83154296875	37.74953460693359	-185.5136413574219	-1881.439575195312	29.57419204711914	-262.2289123535156	
133	1.32	-1793.417846679688	1120.94873046875	-235.4386596679688	-1794.021484375	1122.504150390625	-370.6484069824219	-1800.236083984375	1157.373291015625	-305.2171325683594	-1576.435302734375	1350.927001953125	-300.0603637695312	-1831.837280273438	1311.6328125	-305.4622497558594	-1779.641479492188	1601.54541015625	-318.6541137695312	-1604.741943359375	1487.890625	-304.2033996582031	-1847.9091796875	1420.328247070312	-233.0014495849609	-1785.599731445312	1583.103759765625	-420.5672302246094	-1697.683715820312	1565.770263671875	-486.5808715820312	-1721.889526367188	1434.622802734375	-556.597412109375	-1716.551025390625	1215.264892578125	-579.1871337890625	-1783.574096679688	1204.301391601562	-523.110595703125	-1621.021728515625	956.8241577148438	-538.0679931640625	-1703.640625	932.2214965820312	-563.7058715820312	-1703.389526367188	1099.319580078125	-583.5552978515625	-1613.274169921875	764.3863525390625	-513.58740234375	-1675.17431640625	856.9612426757812	-564.8214721679688	-1607.473876953125	866.8576049804688	-549.0053100585938	-1733.30419921875	1581.157836914062	-135.4955444335938	-1755.202270507812	1508.440673828125	-72.76702117919922	-1771.469970703125	1212.855590820312	-50.80652236938477	-1779.976196289062	1212.305419921875	-147.7646484375	-1627.422607421875	969.4801025390625	-70.85453033447266	-1702.307495117188	952.2940063476562	-37.69332885742188	-1748.448486328125	1138.920532226562	-36.71808624267578	-1606.261108398438	774.4683227539062	-91.26662445068359	-1599.6689453125	859.9119262695312	-67.32147216796875	-1668.040649414062	852.71240234375	-34.31726837158203	-1744.493041992188	1764.135986328125	-236.7762756347656	-1585.839111328125	1838.663330078125	-371.5814819335938	-1584.870727539062	1844.01123046875	-241.84423828125	-1752.323852539062	1762.095458984375	-371.9806823730469	-1700.220703125	1034.415649414062	-480.2707214355469	-1670.4765625	1021.806762695312	-115.6489181518555	-1586.24755859375	1094.125854492188	-167.2395324707031	-1595.802612304688	1096.557495117188	-433.5041809082031	-1606.773803710938	528.5521240234375	-452.4261169433594	-1646.771240234375	676.0875854492188	-476.3448181152344	-1826.807495117188	52.96584701538086	-458.0548095703125	-1761.11474609375	300.6675109863281	-480.7430725097656	-1599.206420898438	40.14634323120117	-413.4064636230469	-1675.273681640625	44.71826171875	-375.2731323242188	-1703.8505859375	34.18711090087891	-488.9851684570312	-1891.998779296875	62.01406860351562	-391.0264587402344	-1685.3681640625	528.9776000976562	-171.4878692626953	-1653.623046875	806.7727661132812	-129.8261413574219	-1825.0458984375	26.40827178955078	-211.6635131835938	-1718.64990234375	394.1229248046875	-164.4867095947266	-1592.13134765625	42.11697387695312	-257.608154296875	-1652.068969726562	33.21706008911133	-300.0807495117188	-1691.895263671875	37.6966552734375	-185.4806671142578	-1881.541381835938	29.47343826293945	-262.1000671386719	
134	1.33	-1792.291381835938	1120.838989257812	-234.6856384277344	-1793.3818359375	1122.2548828125	-369.9064331054688	-1799.235961914062	1157.489624023438	-304.3771057128906	-1574.508056640625	1350.379760742188	-299.3899230957031	-1830.124755859375	1311.939086914062	-304.392822265625	-1776.803344726562	1601.642578125	-317.4995422363281	-1602.265747070312	1487.489501953125	-303.3902893066406	-1845.63134765625	1420.718994140625	-231.7822875976562	-1782.993774414062	1583.291259765625	-419.4402465820312	-1695.232055664062	1565.681030273438	-485.5937805175781	-1719.928833007812	1434.638427734375	-555.5525512695312	-1715.204223632812	1215.260131835938	-578.2107543945312	-1782.22900390625	1204.464233398438	-522.1145629882812	-1620.178833007812	956.6834716796875	-537.1256103515625	-1702.7890625	932.18408203125	-562.701904296875	-1702.278686523438	1099.285766601562	-582.578369140625	-1612.633178710938	764.25341796875	-512.5427856445312	-1674.46923828125	856.8916625976562	-563.8024291992188	-1606.674560546875	866.6652221679688	-548.0210571289062	-1730.220092773438	1581.024047851562	-134.4354553222656	-1752.243286132812	1508.379516601562	-71.69325256347656	-1769.366577148438	1212.875244140625	-49.50453567504883	-1778.0869140625	1212.306030273438	-146.4318389892578	-1625.85546875	969.216552734375	-69.74098205566406	-1700.72705078125	952.16650390625	-36.45736312866211	-1746.485961914062	1138.87744140625	-35.44095993041992	-1605.118530273438	774.1290893554688	-90.10846710205078	-1598.279663085938	859.5820922851562	-66.23056030273438	-1666.668212890625	852.5313110351562	-33.08225250244141	-1741.272094726562	1763.855712890625	-235.7113952636719	-1582.734985351562	1838.248046875	-370.7518005371094	-1581.61865234375	1843.615112304688	-241.0021057128906	-1749.26611328125	1761.77783203125	-370.9141540527344	-1699.505249023438	1034.087158203125	-479.5536193847656	-1669.468383789062	1021.625854492188	-114.9966125488281	-1584.995971679688	1093.653930664062	-166.531982421875	-1595.080444335938	1096.279052734375	-432.8047485351562	-1597.356567382812	529.022216796875	-451.4363708496094	-1639.685546875	676.372802734375	-475.3110046386719	-1825.740234375	56.53868865966797	-457.9810180664062	-1755.271484375	303.1209106445312	-480.0234069824219	-1598.6337890625	40.16971969604492	-414.5249633789062	-1674.057861328125	45.53385162353516	-375.7794799804688	-1703.57568359375	34.78083419799805	-488.8747253417969	-1890.376586914062	66.944091796875	-390.7357788085938	-1685.157104492188	528.79443359375	-170.81396484375	-1652.762451171875	806.5614013671875	-129.1087036132812	-1825.132080078125	26.31620407104492	-211.6131591796875	-1718.59521484375	393.9461669921875	-163.9105224609375	-1592.178466796875	42.20707702636719	-257.5639343261719	-1652.183715820312	33.40872573852539	-300.1345520019531	-1691.955322265625	37.65870666503906	-185.4488220214844	-1881.635131835938	29.38719749450684	-261.9911804199219	
